<svg width="17" height="16" viewBox="0 0 17 16" fill="none" xmlns="http://www.w3.org/2000/svg">
    <path d="M2.71953 2H13.5978C13.9585 2 14.3043 2.14048 14.5594 2.39052C14.8144 2.64057 14.9576 2.97971 14.9576 3.33333V7.33333C14.9576 9.10144 14.2413 10.7971 12.9663 12.0474C11.6912 13.2976 9.96188 14 8.15868 14C7.26583 14 6.38173 13.8276 5.55684 13.4925C4.73196 13.1575 3.98245 12.6664 3.35111 12.0474C2.07606 10.7971 1.35974 9.10144 1.35974 7.33333V3.33333C1.35974 2.97971 1.503 2.64057 1.75801 2.39052C2.01302 2.14048 2.35889 2 2.71953 2V2Z" stroke="#0768B5" stroke-width="2" stroke-linecap="round" stroke-linejoin="round"/>
    <path d="M5.43921 6.66669L8.15879 9.33335L10.8784 6.66669" stroke="#0768B5" stroke-width="2" stroke-linecap="round" stroke-linejoin="round"/>
</svg>